<?xml version="1.0" encoding="utf-8"?>
<!-- Generator: Adobe Illustrator 23.0.2, SVG Export Plug-In . SVG Version: 6.00 Build 0)  -->
<svg version="1.1" id="Layer_1" xmlns="http://www.w3.org/2000/svg" xmlns:xlink="http://www.w3.org/1999/xlink" x="0px" y="0px"
	 viewBox="0 0 480 480" style="enable-background:new 0 0 480 480;" xml:space="preserve">
<style type="text/css">
	.st0{fill:url(#SVGID_1_);}
	.st1{fill:url(#SVGID_2_);}
	.st2{fill:#F2860F;}
</style>
<g>
	<g>
		<linearGradient id="SVGID_1_" gradientUnits="userSpaceOnUse" x1="242.8408" y1="199.0432" x2="281.5415" y2="199.0432">
			<stop  offset="0" style="stop-color:#6A8F00"/>
			<stop  offset="1" style="stop-color:#89FF00"/>
		</linearGradient>
		<path class="st0" d="M279.7,179.7c-20.3,0-36.8,16.5-36.8,36.8v1.9h1.9c20.3,0,36.8-16.5,36.8-36.8v-1.9H279.7z M246.7,214.6
			c1-16.7,14.4-30.1,31-31C276.7,200.2,263.3,213.6,246.7,214.6z"/>
		<linearGradient id="SVGID_2_" gradientUnits="userSpaceOnUse" x1="215.2517" y1="156.2212" x2="215.2517" y2="218.1157">
			<stop  offset="0" style="stop-color:#89FF00"/>
			<stop  offset="1" style="stop-color:#6A8F00"/>
		</linearGradient>
		<path class="st1" d="M193.7,156.5l-2-0.3l-0.3,2c-1.9,14,1.8,28,10.4,39.2s21,18.5,35.1,20.4l2,0.3l0.3-2
			C243,187.2,222.6,160.4,193.7,156.5z M235.4,213.6c-12.1-2.2-22.9-8.7-30.4-18.6c-7.5-9.9-11-22-9.8-34.2
			C220.2,165.2,237.7,188.3,235.4,213.6z"/>
	</g>
</g>
<circle class="st2" cx="240" cy="272.7" r="51.1"/>
</svg>
